<svg xmlns="http://www.w3.org/2000/svg" xmlns:xlink="http://www.w3.org/1999/xlink" viewBox="1 1 176 176" class="icon" style="--icon-size: 20px;"><style>.chrome_svg__B{clip-path:url(#chrome_svg__C)}.chrome_svg__C{fill:#3e2723}.chrome_svg__D{fill-opacity:.15}.chrome_svg__E{fill-opacity:.2}</style><defs><circle id="chrome_svg__A" cx="96" cy="96" r="88"></circle><path id="chrome_svg__B" d="M8 184h83.77l38.88-38.88V116h-69.3L8 24.48z"></path></defs><clipPath id="chrome_svg__C"><use xlink:href="#chrome_svg__A"></use></clipPath><g class="chrome_svg__B" transform="translate(-7 -7)"><path fill="#db4437" d="M21.97 8v108h39.4L96 56h88V8z"></path><linearGradient id="chrome_svg__D" x1="29.34" x2="81.84" y1="75.02" y2="44.35" gradientUnits="userSpaceOnUse"><stop offset="0" stop-color="#a52714" stop-opacity="0.6"></stop><stop offset="0.66" stop-color="#a52714" stop-opacity="0"></stop></linearGradient><path fill="url(#chrome_svg__D)" d="M21.97 8v108h39.4L96 56h88V8z"></path><path d="M62.3 115.6 22.48 47.3l-.58 1 39.54 67.8z" class="chrome_svg__C chrome_svg__D"></path><use xlink:href="#chrome_svg__B" fill="#0f9d58"></use><linearGradient id="chrome_svg__E" x1="110.9" x2="52.54" y1="164.5" y2="130.3" gradientUnits="userSpaceOnUse"><stop offset="0" stop-color="#055524" stop-opacity="0.4"></stop><stop offset="0.33" stop-color="#055524" stop-opacity="0"></stop></linearGradient><path fill="url(#chrome_svg__E)" d="M8 184h83.77l38.88-38.88V116h-69.3L8 24.48z"></path><path fill="#263238" d="m129.8 117.3-.83-.48-38.4 67.15h1.15l38.1-66.64z" class="chrome_svg__D"></path><defs><path id="chrome_svg__F" d="M8 184h83.77l38.88-38.88V116h-69.3L8 24.48z"></path></defs><clipPath id="chrome_svg__G"><use xlink:href="#chrome_svg__F"></use></clipPath><g clip-path="url(#chrome_svg__G)"><path fill="#ffcd40" d="m96 56 34.65 60-38.88 68H184V56z"></path><linearGradient id="chrome_svg__H" x1="121.9" x2="136.6" y1="49.8" y2="114.1" gradientUnits="userSpaceOnUse"><stop offset="0" stop-color="#ea6100" stop-opacity="0.3"></stop><stop offset="0.66" stop-color="#ea6100" stop-opacity="0"></stop></linearGradient><path fill="url(#chrome_svg__H)" d="m96 56 34.65 60-38.88 68H184V56z"></path></g><path fill="#ffcd40" d="m96 56 34.65 60-38.88 68H184V56z"></path><path fill="url(#chrome_svg__H)" d="m96 56 34.65 60-38.88 68H184V56z"></path><defs><path id="chrome_svg__I" d="m96 56 34.65 60-38.88 68H184V56z"></path></defs><clipPath id="chrome_svg__J"><use xlink:href="#chrome_svg__I"></use></clipPath><g clip-path="url(#chrome_svg__J)"><path fill="#db4437" d="M21.97 8v108h39.4L96 56h88V8z"></path><path fill="url(#chrome_svg__D)" d="M21.97 8v108h39.4L96 56h88V8z"></path></g></g><radialGradient id="chrome_svg__K" cx="668.2" cy="55.95" r="84.08" gradientTransform="translate(-576)" gradientUnits="userSpaceOnUse"><stop offset="0" stop-color="#3e2723" stop-opacity="0.2"></stop><stop offset="1" stop-color="#3e2723" stop-opacity="0"></stop></radialGradient><path fill="url(#chrome_svg__K)" d="M96 56v20.95L174.4 56z" class="chrome_svg__B" transform="translate(-7 -7)"></path><g class="chrome_svg__B" transform="translate(-7 -7)"><defs><path id="chrome_svg__L" d="M21.97 8v40.34L61.36 116 96 56h88V8z"></path></defs><clipPath id="chrome_svg__M"><use xlink:href="#chrome_svg__L"></use></clipPath><g clip-path="url(#chrome_svg__M)"><use xlink:href="#chrome_svg__B" fill="#0f9d58"></use><path fill="url(#chrome_svg__E)" d="M8 184h83.77l38.88-38.88V116h-69.3L8 24.48z"></path></g></g><radialGradient id="chrome_svg__N" cx="597.9" cy="48.52" r="78.04" gradientTransform="translate(-576)" gradientUnits="userSpaceOnUse"><stop offset="0" stop-color="#3e2723" stop-opacity="0.2"></stop><stop offset="1" stop-color="#3e2723" stop-opacity="0"></stop></radialGradient><path fill="url(#chrome_svg__N)" d="m21.97 48.45 57.25 57.24L61.36 116z" class="chrome_svg__B" transform="translate(-7 -7)"></path><radialGradient id="chrome_svg__O" cx="671.8" cy="96.14" r="87.87" gradientTransform="translate(-576)" gradientUnits="userSpaceOnUse"><stop offset="0" stop-color="#263238" stop-opacity="0.2"></stop><stop offset="1" stop-color="#263238" stop-opacity="0"></stop></radialGradient><path fill="url(#chrome_svg__O)" d="m91.83 183.9 20.96-78.2 17.86 10.3z" class="chrome_svg__B" transform="translate(-7 -7)"></path><g class="chrome_svg__B" transform="translate(-7 -7)"><circle cx="96" cy="96" r="40" fill="#f1f1f1"></circle><circle cx="96" cy="96" r="32" fill="#4285f4"></circle><path d="M96 55c-22.1 0-40 17.9-40 40v1c0-22.1 17.9-40 40-40h88v-1H96z" class="chrome_svg__C chrome_svg__E"></path><path fill="#fff" fill-opacity="0.1" d="M130.6 116c-6.92 11.94-19.8 20-34.6 20s-27.7-8.06-34.6-20h-.04L8 24.48v1L61.4 117c6.92 11.94 19.8 20 34.6 20s27.68-8.05 34.6-20h.05v-1h-.06z"></path><path d="M97 56c-.17 0-.33.02-.5.03C118.36 56.3 136 74.08 136 96s-17.64 39.7-39.5 39.97c.17 0 .33.03.5.03 22.1 0 40-17.9 40-40s-17.9-40-40-40z" class="chrome_svg__C" opacity="0.1"></path><path fill="#fff" d="M131 117.3c3.4-5.88 5.37-12.68 5.37-19.96a39.87 39.87 0 0 0-1.87-12.09c.95 3.42 1.5 7 1.5 10.73 0 7.28-1.97 14.08-5.37 19.96l.02.04-38.88 68h1.16L131 117.3z" class="chrome_svg__E"></path><path fill="#fff" d="M96 9c48.43 0 87.72 39.13 88 87.5 0-.17.01-.33.01-.5 0-48.6-39.4-88-88-88S8 47.4 8 96c0 .17.01.33.01.5C8.28 48.13 47.57 9 96 9z" class="chrome_svg__E"></path><path d="M96 183c48.43 0 87.72-39.13 88-87.5 0 .17.01.33.01.5 0 48.6-39.4 88-88 88S8 144.6 8 96c0-.17.01-.33.01-.5.27 48.37 39.56 87.5 88 87.5z" class="chrome_svg__C chrome_svg__D"></path></g></svg>